<svg xmlns="http://www.w3.org/2000/svg" enable-background="new 0 0 24 24" viewBox="0 0 24 24" fill="white" width="24px" height="24px"><g><path d="M0,0h24v24H0V0z" fill="none"/></g><g><g><g><path d="M4,18h16c0.55,0,1-0.45,1-1l0,0c0-0.55-0.45-1-1-1H4c-0.55,0-1,0.45-1,1l0,0C3,17.55,3.45,18,4,18z M4,13h16 c0.55,0,1-0.45,1-1l0,0c0-0.55-0.45-1-1-1H4c-0.55,0-1,0.45-1,1l0,0C3,12.55,3.45,13,4,13z M3,7L3,7c0,0.55,0.45,1,1,1h16 c0.55,0,1-0.45,1-1l0,0c0-0.55-0.45-1-1-1H4C3.45,6,3,6.45,3,7z"/></g></g></g></svg>